<?xml version="1.0" encoding="UTF-8" standalone="no"?>
<!-- Created with Inkscape (http://www.inkscape.org/) -->

<svg
   xmlns:dc="http://purl.org/dc/elements/1.1/"
   xmlns:cc="http://creativecommons.org/ns#"
   xmlns:rdf="http://www.w3.org/1999/02/22-rdf-syntax-ns#"
   xmlns:svg="http://www.w3.org/2000/svg"
   xmlns="http://www.w3.org/2000/svg"
   xmlns:sodipodi="http://sodipodi.sourceforge.net/DTD/sodipodi-0.dtd"
   xmlns:inkscape="http://www.inkscape.org/namespaces/inkscape"
   version="1.0"
   width="1000"
   height="1000"
   id="svg1358"
   inkscape:version="0.91 r13725"
   sodipodi:docname="Trigonometry_triangle.svg">
  <metadata
     id="metadata31">
    <rdf:RDF>
      <cc:Work
         rdf:about="">
        <dc:format>image/svg+xml</dc:format>
        <dc:type
           rdf:resource="http://purl.org/dc/dcmitype/StillImage" />
        <dc:title></dc:title>
      </cc:Work>
    </rdf:RDF>
  </metadata>
  <sodipodi:namedview
     pagecolor="#ffffff"
     bordercolor="#666666"
     borderopacity="1"
     objecttolerance="10"
     gridtolerance="10"
     guidetolerance="10"
     inkscape:pageopacity="0"
     inkscape:pageshadow="2"
     inkscape:window-width="2560"
     inkscape:window-height="1017"
     id="namedview29"
     showgrid="false"
     inkscape:zoom="0.79461279"
     inkscape:cx="789.97669"
     inkscape:cy="519.8033"
     inkscape:window-x="-8"
     inkscape:window-y="-8"
     inkscape:window-maximized="1"
     inkscape:current-layer="svg1358" />
  <defs
     id="defs1360">












</defs>
  <g
     id="g1435"
     style="fill:none;stroke:#000000;stroke-width:0.79701102;stroke-linecap:butt;stroke-linejoin:miter;stroke-miterlimit:10;stroke-opacity:1"
     transform="matrix(5.5488447,0,0,5.5488447,-630.52163,-210.94888)">
	<path
   inkscape:connector-curvature="0"
   id="path1437"
   style="stroke:#000000;stroke-opacity:1"
   d="m 188.77,121.211 -42.52,70.867 85.039,0 0,-141.73 -42.519,70.863 z" />

</g>
  <g
     id="g1439"
     style="fill:none;stroke:#000000;stroke-width:0.79701102;stroke-linecap:butt;stroke-linejoin:miter;stroke-miterlimit:10;stroke-opacity:1"
     transform="matrix(5.5488447,0,0,5.5488447,-630.52163,-212.94888)">
	<path
   inkscape:connector-curvature="0"
   id="path1441"
   style="stroke:#000000;stroke-opacity:1"
   d="m 160.422,192.078 c 0,-4.976 -2.613,-9.594 -6.879,-12.152" />

</g>
  <g
     id="g1443"
     style="fill:none;stroke:#000000;stroke-width:0.79701102;stroke-linecap:butt;stroke-linejoin:miter;stroke-miterlimit:10;stroke-opacity:1"
     transform="matrix(5.5488447,0,0,5.5488447,-630.52163,-212.94888)">
	<path
   inkscape:connector-curvature="0"
   id="path1445"
   style="stroke:#000000;stroke-opacity:1"
   d="m 231.289,183.574 -8.504,0 0,8.504" />

</g>
  <g
     id="g1447"
     style="font-size:11.95510006px;font-family:'Times New Roman';fill:#7f7f7f;stroke:#000000;stroke-opacity:1"
     transform="matrix(5.5488447,0,0,5.5488447,-620.45383,-225.7582)">
	<g
   transform="translate(134.531,200.262)"
   style="fill:#000000;fill-opacity:1;stroke:none;stroke-opacity:1"
   id="text22">
  <path
     id="path4515"
     style="fill:#000000;fill-opacity:1;stroke:none;stroke-opacity:1"
     d="m 5.4696918,-2.6502028 -3.0646619,0 -0.5370455,1.2492145 q -0.1984734,0.46115866 -0.1984734,0.68881925 0,0.18096099 0.1692861,0.32105982 0.1751236,0.13426138 0.7471938,0.17512354 l 0,0.21598569 -2.49259168,0 0,-0.21598569 Q 0.58958257,-0.30354746 0.73551885,-0.44364629 1.0332289,-0.72384395 1.3951508,-1.5819493 l 2.7844643,-6.5145955 0.2043108,0 2.7552769,6.5846449 q 0.3327347,0.7938934 0.6012575,1.0332289 0.2743602,0.23349805 0.7588686,0.26268531 l 0,0.21598569 -3.1230363,0 0,-0.21598569 q 0.4728335,-0.0233498 0.6362821,-0.15761119 0.1692861,-0.13426137 0.1692861,-0.32689726 0,-0.25684786 -0.233498,-0.81140576 l -0.478671,-1.1383029 z m -0.1634487,-0.4319714 -1.3426137,-3.1989233 -1.3776385,3.1989233 2.7202522,0 z"
     inkscape:connector-curvature="0" />
</g>


</g>
  <g
     id="g1450"
     style="font-size:11.95510006px;font-family:'Times New Roman';fill:#7f7f7f;stroke:#000000;stroke-opacity:1"
     transform="matrix(5.5488447,0,0,5.5488447,-630.52163,-216.94888)">
	<g
   transform="translate(237.301,206.238)"
   style="fill:#000000;fill-opacity:1;stroke:none;stroke-opacity:1"
   id="text26">
  <path
     id="path4485"
     style="fill:#000000;fill-opacity:1;stroke:none;stroke-opacity:1"
     d="m 7.1975773,-8.0965448 0.180961,2.691065 -0.180961,0 q -0.3619219,-1.2083524 -1.0332288,-1.7395605 -0.6713069,-0.531208 -1.6111366,-0.531208 -0.7880559,0 -1.4243381,0.4027841 -0.6362821,0.3969467 -1.0040416,1.2725644 -0.3619219,0.8756176 -0.3619219,2.1773693 0,1.074091 0.3444096,1.8621469 0.3444096,0.7880559 1.0332288,1.2083524 0.6946567,0.42029648 1.5819493,0.42029648 0.7705436,0 1.3601262,-0.32689727 0.5895825,-0.33273471 1.2959141,-1.31342651 l 0.180961,0.116749 q -0.59542,1.05657869 -1.3893134,1.54692459 -0.7938933,0.4903459 -1.8854967,0.4903459 -1.9672211,0 -3.0471495,-1.45936279 -0.80556831,-1.0857659 -0.80556831,-2.5568036 0,-1.1850026 0.53120806,-2.1773693 0.53120805,-0.9923667 1.45936275,-1.5352497 0.9339922,-0.5487204 2.0372705,-0.5487204 0.8581053,0 1.6928609,0.4202965 0.2451729,0.1284239 0.350247,0.1284239 0.1576112,0 0.2743602,-0.1109116 0.1517738,-0.1576112 0.2159857,-0.4378088 l 0.2043108,0 z" />
</g>


</g>
  <g
     id="g1453"
     style="font-size:11.95510006px;font-family:'Times New Roman';fill:#7f7f7f;stroke:#000000;stroke-opacity:1"
     transform="matrix(5.5488447,0,0,5.5488447,-630.52163,-205.00888)">
	<g
   transform="translate(229.57,46.145)"
   style="fill:#000000;fill-opacity:1;stroke:none;stroke-opacity:1"
   id="text30">
  <path
     id="path4425"
     style="fill:#000000;fill-opacity:1;stroke:none;stroke-opacity:1"
     d="m 5.5222288,-4.0395162 q 0.8230807,0.1751235 1.2317022,0.5603953 0.5662328,0.5370455 0.5662328,1.3134265 0,0.5895826 -0.3735969,1.1324655 Q 6.5729701,-0.49618335 5.9191755,-0.24517295 5.2712184,0 3.9344421,0 l -3.73596876,0 0,-0.21598569 0.29771001,0 q 0.49618335,0 0.71216905,-0.31522237 0.1342614,-0.20431079 0.1342614,-0.86978024 l 0,-5.1136072 q 0,-0.7355189 -0.1692861,-0.9281548 -0.22766061,-0.2568478 -0.67714435,-0.2568478 l -0.29771001,0 0,-0.2159857 3.42074636,0 q 0.957342,0 1.5352497,0.1400988 0.8756177,0.2101482 1.3367763,0.7471938 0.4611587,0.531208 0.4611587,1.2258647 0,0.59542 -0.361922,1.0682536 -0.361922,0.4669961 -1.0682536,0.6946567 z M 2.4634044,-4.3547386 q 0.2159857,0.040862 0.4903459,0.064212 0.2801977,0.017512 0.6129324,0.017512 0.8522679,0 1.2784018,-0.180961 0.4319714,-0.1867984 0.659632,-0.5662327 0.2276606,-0.3794344 0.2276606,-0.8289181 0,-0.6946567 -0.5662328,-1.1850026 -0.5662328,-0.4903459 -1.6519987,-0.4903459 -0.5837451,0 -1.0507412,0.1284239 l 0,3.0413121 z m 0,3.78266838 q 0.6771443,0.15761118 1.3367763,0.15761118 1.0565787,0 1.6111366,-0.47283354 0.5545578,-0.47867102 0.5545578,-1.17916512 0,-0.4611587 -0.2510104,-0.8872926 -0.2510104,-0.4261339 -0.8172431,-0.6713069 -0.5662328,-0.2451729 -1.4009883,-0.2451729 -0.361922,0 -0.6187699,0.011675 -0.2568478,0.011675 -0.414459,0.040862 l 0,3.24562288 z" />
</g>


</g>
  <g
     id="g1456"
     style="font-style:oblique;font-size:11.95510006px;font-family:'Times New Roman';fill:#008000;stroke:#000000;stroke-opacity:1"
     transform="matrix(5.5488447,0,0,5.5488447,-633.03858,-243.04125)">
	<g
   transform="translate(185.785,208.766)"
   style="fill:#008000;fill-opacity:1;stroke:none;stroke-opacity:1"
   id="text34">
  <path
     id="path4489"
     style="fill:#008000;fill-opacity:1;stroke:none;stroke-opacity:1"
     d="m 3.4499337,-8.3008556 -1.1499779,4.0336788 q 0.5603953,-0.5837451 0.9748543,-0.7997308 0.4202965,-0.2159857 0.8756177,-0.2159857 0.6421196,0 1.0507412,0.4261339 0.4086216,0.4261339 0.4086216,1.1558153 0,0.9398297 -0.5370455,1.8738219 -0.5370455,0.92815472 -1.3484512,1.44768787 -0.8114058,0.51953316 -1.5994617,0.51953316 -0.8814551,0 -1.80960984,-0.65963199 L 2.0898075,-6.6313446 q 0.2043108,-0.7063316 0.2043108,-0.828918 0,-0.1517738 -0.093399,-0.2276606 -0.1342614,-0.1050742 -0.3969467,-0.1050742 -0.1225865,0 -0.3735969,0.040862 l 0,-0.2218231 2.0197582,-0.3268973 z M 1.19084,-0.45532119 q 0.5837452,0.32105981 1.0273915,0.32105981 0.5136957,0 1.0624161,-0.37359687 0.5545578,-0.37943433 0.957342,-1.27256435 0.4086216,-0.8931301 0.4086216,-1.8037724 0,-0.5370455 -0.2685228,-0.840593 -0.2626853,-0.3035475 -0.6246073,-0.3035475 -0.5428829,0 -1.0624161,0.4378089 -0.5195332,0.4319714 -0.7413563,1.2083524 L 1.19084,-0.45532119 Z"
     inkscape:connector-curvature="0" />
</g>


</g>
  <g
     id="g1459"
     style="font-style:oblique;font-size:11.95510006px;font-family:'Times New Roman';fill:#d40000;stroke:#000000;stroke-opacity:1"
     transform="matrix(5.5488447,0,0,5.5488447,-630.52163,-216.94888)">
	<g
   transform="translate(239.793,123.762)"
   style="fill:#d40000;fill-opacity:1;stroke:none;stroke-opacity:1"
   id="text38">
  <path
     id="path4459"
     style="fill:#d40000;fill-opacity:1;stroke:none;stroke-opacity:1"
     d="m 5.6097906,-5.2828933 -1.138303,3.9577919 -0.1284239,0.53120804 q -0.017512,0.0758869 -0.017512,0.12842392 0,0.0933992 0.058375,0.16344864 0.0467,0.0525371 0.116749,0.0525371 0.075887,0 0.1984733,-0.0933992 0.2276606,-0.16928609 0.6070949,-0.7004941 l 0.1984734,0.1400988 q -0.4027842,0.60709491 -0.8289181,0.92815472 -0.4261339,0.31522237 -0.7880559,0.31522237 -0.2510104,0 -0.3794343,-0.12842393 -0.1225865,-0.12258647 -0.1225865,-0.36192197 0,-0.28603511 0.1284239,-0.75303119 L 3.6367329,-1.541087 q -0.7647061,0.9982041 -1.4068257,1.39515078 -0.4611587,0.28603511 -0.904805,0.28603511 -0.42613392,0 -0.73551883,-0.35024707 -0.30938491,-0.35608453 -0.30938491,-0.97485432 0,-0.9281547 0.55455786,-1.9555461 0.56039528,-1.0332289 1.41850068,-1.6519987 0.6713069,-0.4903459 1.2667269,-0.4903459 0.3560845,0 0.5895825,0.1867984 0.2393355,0.1867984 0.361922,0.6187698 L 4.6816359,-5.1427945 5.6097906,-5.2828933 Z M 3.531658,-4.9793459 q -0.3735969,0 -0.7938934,0.3502471 -0.59542,0.4961833 -1.0624161,1.4710377 -0.4611587,0.9748544 -0.4611587,1.7629103 0,0.39694664 0.1984734,0.63044469 0.1984733,0.2276606 0.4553212,0.2276606 0.6362822,0 1.3834759,-0.93982969 0.9982042,-1.2492145 0.9982042,-2.562641 0,-0.4961834 -0.1926359,-0.7180065 Q 3.8643927,-4.9793459 3.531658,-4.9793459 Z" />
</g>


</g>
  <g
     id="g1462"
     style="font-style:oblique;font-size:11.95510006px;font-family:'Times New Roman';fill:#0000ff;stroke:#000000;stroke-opacity:1"
     transform="matrix(5.5488447,0,0,5.5488447,-630.52163,-216.94888)">
	<g
   transform="translate(178.484,120.883)"
   style="fill:#0000ff;fill-opacity:1;stroke:none;stroke-opacity:1"
   id="text42">
  <path
     id="path4455"
     style="fill:#0000ff;fill-opacity:1;stroke:none;stroke-opacity:1"
     d="m 3.5083082,-8.3008556 -1.6403238,5.6681651 q 1.0624161,-1.5994616 1.6578361,-2.1248322 0.59542,-0.5253706 1.138303,-0.5253706 0.2801977,0 0.4669961,0.1926359 0.1867984,0.1926358 0.1867984,0.5136957 0,0.3852717 -0.1634486,0.9339922 l -0.712169,2.445892 q -0.1342614,0.4436463 -0.1342614,0.4903459 0,0.0817243 0.0467,0.13426138 0.052537,0.0525371 0.116749,0.0525371 0.075887,0 0.1751236,-0.0758869 0.3327347,-0.25684786 0.6596319,-0.71216908 l 0.180961,0.1109116 Q 5.2887308,-0.88729258 4.9326463,-0.51369571 4.5823992,-0.14593628 4.3255513,0 4.0745409,0.14009883 3.8760676,0.14009883 3.6600819,0.14009883 3.5199831,0 3.3857217,-0.13426138 3.3857217,-0.35024707 q 0,-0.25684785 0.2043108,-0.95734203 l 0.6713069,-2.3349804 q 0.1284239,-0.4378089 0.1284239,-0.6888193 0,-0.116749 -0.075887,-0.1867984 -0.070049,-0.070049 -0.1867984,-0.070049 -0.1692861,0 -0.3852718,0.1284239 -0.3969467,0.2451729 -0.9164798,0.9106424 -0.1400988,0.180961 -0.9339922,1.4593628 -0.245173,0.4086216 -0.4027841,0.89313 L 1.1149532,0 0.2393355,0 2.1598569,-6.6780442 2.3641677,-7.4018881 q 0,-0.1517738 -0.1284239,-0.2685228 -0.1225865,-0.116749 -0.3035475,-0.116749 -0.1050741,0 -0.3210598,0.035025 l -0.1225864,0.017512 0,-0.2276606 2.0197581,-0.3385722 z" />
</g>


</g>
  <g
     id="g1465"
     style="font-style:oblique;font-size:11.95510006px;font-family:'Times New Roman';fill:#008000;stroke:#000000;stroke-opacity:1"
     transform="matrix(5.5488447,0,0,5.5488447,-635.55553,-245.5582)">
	<g
   transform="translate(164.203,220.102)"
   style="fill:#008000;fill-opacity:1;stroke:none;stroke-opacity:1"
   id="text46">
  <path
     id="path4511"
     style="fill:#008000;fill-opacity:1;stroke:none;stroke-opacity:1"
     d="m 46.851384,-8.189944 0.198474,-0.1109116 q 0.694657,1.319264 0.992367,2.3349805 0.239335,0.7938933 0.239335,1.5994616 0,1.8854967 -0.86978,3.36820934 -1.074091,1.82712223 -3.461609,3.55500776 l -0.140099,-0.180961 q 1.079929,-0.8055682 1.762911,-1.79209748 0.852268,-1.23753965 1.395151,-2.98877502 0.542882,-1.7570728 0.542882,-3.1930858 0,-1.0974408 -0.659632,-2.5918283 z m -1.94971,1.4593628 -0.455321,1.5877867 0.91648,0 -0.09924,0.3677594 -0.910642,0 -1.004042,3.4440962 q -0.163448,0.55455789 -0.163448,0.71800652 0,0.0992367 0.0467,0.15177374 0.0467,0.0525371 0.110912,0.0525371 0.145936,0 0.385272,-0.2043108 0.140098,-0.11674902 0.624607,-0.71800656 l 0.192636,0.1459363 q -0.537046,0.78221851 -1.015717,1.10327832 -0.326897,0.22182315 -0.659632,0.22182315 -0.256848,0 -0.420296,-0.15761118 -0.163449,-0.16344864 -0.163449,-0.41445904 0,-0.31522236 0.186799,-0.96317945 l 0.974854,-3.3798843 -0.881455,0 0.05837,-0.2276606 q 0.64212,-0.1751235 1.068254,-0.5195331 0.426134,-0.3502471 0.951504,-1.2083524 l 0.256848,0 z m -6.444546,1.4476879 -0.776381,2.6560403 q 1.091603,-1.6286489 1.669511,-2.1423446 0.583745,-0.5136957 1.12079,-0.5136957 0.291873,0 0.478671,0.1926359 0.192636,0.1926358 0.192636,0.5020208 0,0.350247 -0.169286,0.9339921 l -0.712169,2.457567 q -0.122586,0.42613394 -0.122586,0.51953316 0,0.0817243 0.0467,0.14009883 0.0467,0.0525371 0.09924,0.0525371 0.07005,0 0.169286,-0.0758869 0.309385,-0.24517295 0.677144,-0.74719379 l 0.180961,0.1109116 q -0.542883,0.77638102 -1.027391,1.10911574 -0.338572,0.2276606 -0.607095,0.2276606 -0.215986,0 -0.34441,-0.13426138 -0.128424,-0.12842393 -0.128424,-0.35024707 0,-0.28019766 0.198474,-0.96317949 l 0.677144,-2.3466554 q 0.128424,-0.4378088 0.128424,-0.6829817 0,-0.1167491 -0.07589,-0.1867985 -0.07589,-0.075887 -0.186798,-0.075887 -0.163449,0 -0.39111,0.1400988 -0.431971,0.2626853 -0.898967,0.8697802 -0.466996,0.6012575 -0.986529,1.5410871 -0.27436,0.4961834 -0.455321,1.08576596 L 36.921878,0 36.04626,0 37.108676,-3.6542445 q 0.186799,-0.6596319 0.186799,-0.7938933 0,-0.1284239 -0.105074,-0.2218232 -0.09924,-0.099237 -0.251011,-0.099237 -0.07005,0 -0.245173,0.02335 l -0.221823,0.035025 -0.03502,-0.2101483 2.019758,-0.3619219 z m -6.514596,3.0821742 q -0.04086,0.2918726 -0.04086,0.4845084 0,0.5195332 0.36776,0.88729263 0.367759,0.36192197 0.89313,0.36192197 0.420296,0 0.805568,-0.16928608 0.391109,-0.17512354 1.155815,-0.76470612 l 0.122587,0.1692861 q -1.383476,1.37180103 -2.638528,1.37180103 -0.852268,0 -1.28424,-0.53704551 -0.431971,-0.53704551 -0.431971,-1.18500262 0,-0.8697802 0.537046,-1.7804226 0.537045,-0.9106424 1.348451,-1.4126632 0.811406,-0.5078582 1.669511,-0.5078582 0.61877,0 0.91648,0.2510104 0.29771,0.2510104 0.29771,0.59542 0,0.4845084 -0.385272,0.9281547 -0.507858,0.5779077 -1.494388,0.9339922 -0.653794,0.2393355 -1.838797,0.3735969 z m 0.04086,-0.2860351 q 0.863943,-0.099237 1.406826,-0.3385722 0.718007,-0.3210598 1.074091,-0.7647061 0.361922,-0.4494837 0.361922,-0.8522679 0,-0.2451729 -0.157611,-0.3969466 -0.151774,-0.1517738 -0.437809,-0.1517738 -0.59542,0 -1.266727,0.6362822 -0.665469,0.6304447 -0.980692,1.8679844 z m -2.148179,1.2141898 q -0.607095,0.72968144 -1.225865,1.07409106 -0.61877,0.33857217 -1.307589,0.33857217 -0.828918,0 -1.295914,-0.4669961 -0.461159,-0.46699609 -0.461159,-1.25505203 0,-0.89313 0.496183,-1.7570728 0.502021,-0.8639428 1.342614,-1.4009883 0.846431,-0.5428829 1.657836,-0.5428829 0.636282,0 0.951505,0.2685227 0.315222,0.2626853 0.315222,0.6479571 0,0.361922 -0.221823,0.6187698 -0.163449,0.1984734 -0.402784,0.1984734 -0.180961,0 -0.303548,-0.1167491 -0.116749,-0.116749 -0.116749,-0.2918725 0,-0.1109116 0.04086,-0.2043108 0.0467,-0.093399 0.180961,-0.2218232 0.140098,-0.1342613 0.169286,-0.1926358 0.02919,-0.058375 0.02919,-0.1225865 0,-0.1225865 -0.110912,-0.2043108 -0.169286,-0.116749 -0.478671,-0.116749 -0.57207,0 -1.132465,0.4027841 -0.560396,0.4027841 -0.957342,1.1441404 -0.478671,0.8989675 -0.478671,1.797935 0,0.59542 0.338572,0.9456671 0.338572,0.34440962 0.922317,0.34440962 0.449484,0 0.887293,-0.22182314 0.443646,-0.2276606 0.992367,-0.81724318 l 0.169286,0.1517737 z m -4.985182,-4.0103289 -1.138303,3.9577919 -0.128424,0.53120804 q -0.01751,0.0758869 -0.01751,0.12842392 0,0.0933992 0.05837,0.16344864 0.0467,0.0525371 0.116749,0.0525371 0.07589,0 0.198473,-0.0933992 0.227661,-0.16928609 0.607095,-0.7004941 l 0.198474,0.1400988 q -0.402785,0.60709491 -0.828918,0.92815472 -0.426134,0.31522237 -0.788056,0.31522237 -0.251011,0 -0.379435,-0.12842393 -0.122586,-0.12258647 -0.122586,-0.36192197 0,-0.28603511 0.128424,-0.75303119 L 22.87697,-1.541087 q -0.764706,0.9982041 -1.406826,1.39515078 -0.461158,0.28603511 -0.904804,0.28603511 -0.426134,0 -0.735519,-0.35024707 -0.309385,-0.35608453 -0.309385,-0.97485432 0,-0.9281547 0.554558,-1.9555461 0.560395,-1.0332289 1.4185,-1.6519987 0.671307,-0.4903459 1.266727,-0.4903459 0.356085,0 0.589583,0.1867984 0.239335,0.1867984 0.361922,0.6187698 l 0.210148,-0.6654694 0.928155,-0.1400988 z m -2.078133,0.3035474 q -0.373597,0 -0.793893,0.3502471 -0.59542,0.4961833 -1.062416,1.4710377 -0.461159,0.9748544 -0.461159,1.7629103 0,0.39694664 0.198473,0.63044469 0.198474,0.2276606 0.455321,0.2276606 0.636283,0 1.383476,-0.93982969 0.998205,-1.2492145 0.998205,-2.562641 0,-0.4961834 -0.192636,-0.7180065 -0.192636,-0.2218232 -0.525371,-0.2218232 z M 18.662332,-7.594524 q 0.245173,0 0.414459,0.1751235 0.175123,0.1692861 0.175123,0.4144591 0,0.2451729 -0.175123,0.4202964 -0.169286,0.1692861 -0.414459,0.1692861 -0.245173,0 -0.420297,-0.1692861 -0.169286,-0.1751235 -0.169286,-0.4202964 0,-0.245173 0.169286,-0.4144591 0.175124,-0.1751235 0.420297,-0.1751235 z m 0.0934,2.3116307 -1.5119,5.22451879 q -0.402784,1.40098831 -1.109116,2.01975811 -0.700494,0.6187698 -1.517737,0.6187698 -0.367759,0 -0.554558,-0.1692861 -0.192636,-0.169286 -0.192636,-0.4027841 0,-0.180961 0.145937,-0.3210598 0.140099,-0.1342614 0.326897,-0.1342614 0.169286,0 0.29771,0.1109116 0.105074,0.087562 0.105074,0.1984733 0,0.1517738 -0.145936,0.2626853 -0.08173,0.064212 -0.08173,0.1050742 l 0.01168,0.029187 q 0.01751,0.02335 0.05254,0.035025 0.03502,0.011675 0.105075,0.011675 0.472833,0 0.811405,-0.3035474 0.332735,-0.29771 0.59542,-1.19667753 l 1.307589,-4.48316257 q 0.192636,-0.6596319 0.192636,-0.7296814 0,-0.1400988 -0.128424,-0.2510104 -0.122586,-0.1109115 -0.315222,-0.1109115 -0.07589,0 -0.175124,0.017512 -0.07589,0.011675 -0.221823,0.035025 l 0,-0.2043108 2.002246,-0.3619219 z m -2.340819,-3.0179623 -2.008084,6.8881924 q -0.163448,0.56039532 -0.163448,0.73551886 0,0.0583745 0.0467,0.11091157 0.05254,0.0525371 0.105075,0.0525371 0.07589,0 0.180961,-0.0758869 0.198473,-0.14009883 0.665469,-0.70049413 l 0.198473,0.1225865 q -0.420296,0.58374508 -0.852268,0.94566705 -0.426134,0.36192198 -0.79973,0.36192198 -0.198474,0 -0.326898,-0.14009883 -0.128424,-0.14009883 -0.128424,-0.39694668 0,-0.33273472 0.175124,-0.89313002 l 0.227661,-0.723844 q -0.846431,1.3075891 -1.541088,1.80960991 -0.478671,0.34440962 -0.916479,0.34440962 -0.443647,0 -0.776381,-0.39110923 -0.326898,-0.39694668 -0.326898,-1.074091 0,-0.8697803 0.554558,-1.8563095 0.554558,-0.9865293 1.4652,-1.6052991 0.718007,-0.4961833 1.319264,-0.4961833 0.315223,0 0.542883,0.1284239 0.227661,0.1284239 0.449484,0.4261339 l 0.57207,-2.031433 q 0.06421,-0.2159857 0.105074,-0.3444096 0.07005,-0.2334981 0.07005,-0.3852718 0,-0.1225865 -0.08756,-0.2043108 -0.122586,-0.099237 -0.315222,-0.099237 -0.134262,0 -0.443647,0.040862 l 0,-0.2159857 2.008084,-0.3327347 z m -2.165695,4.1445903 q 0,-0.3735968 -0.215985,-0.6012574 -0.215986,-0.2276606 -0.548721,-0.2276606 -0.735519,0 -1.53525,1.2141898 -0.793893,1.2141899 -0.793893,2.3233056 0,0.4378088 0.192636,0.67130689 0.192636,0.2276606 0.461159,0.2276606 0.607095,0 1.523574,-1.31342649 0.91648,-1.3134266 0.91648,-2.2941184 z m -4.6699605,-1.126628 -1.138303,3.9577919 -0.1284239,0.53120804 q -0.017512,0.0758869 -0.017512,0.12842392 0,0.0933992 0.058374,0.16344864 0.0467,0.0525371 0.116749,0.0525371 0.075887,0 0.1984733,-0.0933992 0.2276606,-0.16928609 0.607095,-0.7004941 l 0.1984733,0.1400988 q -0.4027841,0.60709491 -0.8289181,0.92815472 -0.4261339,0.31522237 -0.7880559,0.31522237 -0.2510104,0 -0.3794343,-0.12842393 -0.1225865,-0.12258647 -0.1225865,-0.36192197 0,-0.28603511 0.1284239,-0.75303119 L 7.606199,-1.5410871 q -0.7647061,0.99820414 -1.4068257,1.39515082 -0.4611587,0.28603511 -0.904805,0.28603511 -0.4261339,0 -0.7355188,-0.35024707 -0.3093849,-0.35608453 -0.3093849,-0.97485436 0,-0.9281547 0.5545578,-1.9555461 0.5603954,-1.0332289 1.4185007,-1.6519987 0.6713069,-0.4903459 1.2667269,-0.4903459 0.3560845,0 0.5895826,0.1867984 0.2393355,0.1867984 0.3619219,0.6187698 l 0.2101483,-0.6654694 0.9281547,-0.1400988 z m -2.0781326,0.3035474 q -0.3735969,0 -0.7938934,0.3502471 -0.59542,0.4961833 -1.0624161,1.4710377 -0.4611586,0.9748544 -0.4611586,1.7629103 0,0.39694664 0.1984733,0.63044469 0.1984734,0.2276606 0.4553212,0.2276606 0.6362822,0 1.3834759,-0.93982969 0.9982042,-1.2492145 0.9982042,-2.562641 0,-0.4961834 -0.1926359,-0.7180065 Q 7.8338596,-4.9793459 7.5011249,-4.9793459 Z M 2.2474187,2.4634044 2.0489454,2.5568036 Q 1.3542887,1.2317022 1.0507412,0.21598569 0.81724317,-0.57790767 0.81724317,-1.3834759 q 0,-1.8796593 0.86978023,-3.3682094 1.0682536,-1.8212848 3.4616086,-3.5491703 l 0.1400988,0.2043108 q -1.0799285,0.7997308 -1.7629103,1.7920975 -0.8522678,1.2375397 -1.3951508,2.988775 -0.542883,1.7512354 -0.542883,3.18724837 0,1.09744083 0.659632,2.59182833 z" />
</g>


</g>
  <g
     id="g1468"
     style="font-style:oblique;font-size:11.95510006px;font-family:'Times New Roman';fill:#d40000;stroke:#000000;stroke-opacity:1"
     transform="matrix(5.5488447,0,0,5.5488447,-664.50044,-209.39803)">
	<g
   transform="translate(245.32,143.246)"
   style="fill:#d40000;fill-opacity:1;stroke:none;stroke-opacity:1"
   id="text50">
  <path
     id="path4481"
     style="fill:#d40000;fill-opacity:1;stroke:none;stroke-opacity:1"
     d="m 46.197587,-8.189944 0.198474,-0.1109116 q 0.694656,1.319264 0.992366,2.3349805 0.239336,0.7938933 0.239336,1.5994616 0,1.8854967 -0.86978,3.36820934 -1.074091,1.82712223 -3.461609,3.55500776 l -0.140099,-0.180961 q 1.079929,-0.8055682 1.762911,-1.79209748 0.852267,-1.23753965 1.39515,-2.98877502 0.542883,-1.7570728 0.542883,-3.1930858 0,-1.0974408 -0.659632,-2.5918283 z m -5.615626,5.9892249 q -0.04086,0.2918726 -0.04086,0.4845084 0,0.5195332 0.36776,0.88729263 0.367759,0.36192197 0.89313,0.36192197 0.420296,0 0.805568,-0.16928608 0.391109,-0.17512354 1.155815,-0.76470612 l 0.122587,0.1692861 q -1.383476,1.37180103 -2.638528,1.37180103 -0.852268,0 -1.284239,-0.53704551 -0.431972,-0.53704551 -0.431972,-1.18500262 0,-0.8697802 0.537046,-1.7804226 0.537045,-0.9106424 1.348451,-1.4126632 0.811406,-0.5078582 1.669511,-0.5078582 0.61877,0 0.91648,0.2510104 0.29771,0.2510104 0.29771,0.59542 0,0.4845084 -0.385272,0.9281547 -0.507858,0.5779077 -1.494387,0.9339922 -0.653795,0.2393355 -1.838798,0.3735969 z m 0.04086,-0.2860351 q 0.863942,-0.099237 1.406825,-0.3385722 0.718007,-0.3210598 1.074091,-0.7647061 0.361922,-0.4494837 0.361922,-0.8522679 0,-0.2451729 -0.157611,-0.3969466 -0.151774,-0.1517738 -0.437809,-0.1517738 -0.59542,0 -1.266727,0.6362822 -0.665469,0.6304447 -0.980691,1.8679844 z m -1.675347,-4.243827 -0.455322,1.5877867 0.91648,0 -0.09924,0.3677594 -0.910642,0 -1.004042,3.4440962 q -0.163448,0.55455789 -0.163448,0.71800652 0,0.0992367 0.0467,0.15177374 0.0467,0.0525371 0.110912,0.0525371 0.145936,0 0.385272,-0.2043108 0.140099,-0.11674902 0.624607,-0.71800656 l 0.192636,0.1459363 q -0.537046,0.78221851 -1.015717,1.10327832 -0.326897,0.22182315 -0.659632,0.22182315 -0.256847,0 -0.420296,-0.15761118 -0.163449,-0.16344864 -0.163449,-0.41445904 0,-0.31522236 0.186799,-0.96317945 l 0.974854,-3.3798843 -0.881455,0 0.05837,-0.2276606 q 0.642119,-0.1751235 1.068253,-0.5195331 0.426134,-0.3502471 0.951505,-1.2083524 l 0.256848,0 z m -3.747642,-0.8697803 q 0.245173,0 0.414459,0.1692861 0.169286,0.1692861 0.169286,0.4144591 0,0.2393355 -0.175123,0.414459 -0.169286,0.1692861 -0.408622,0.1692861 -0.239335,0 -0.414459,-0.1692861 -0.169286,-0.1751235 -0.169286,-0.414459 0,-0.245173 0.169286,-0.4144591 0.169286,-0.1692861 0.414459,-0.1692861 z m 0.07589,2.3174682 -1.155815,4.0920533 q -0.116749,0.41445899 -0.116749,0.49618331 0,0.0933992 0.05254,0.15177373 0.05837,0.0583745 0.134261,0.0583745 0.08756,0 0.210148,-0.0933992 0.332735,-0.2626853 0.671307,-0.74719374 l 0.204311,0.1342614 q -0.396947,0.60709489 -0.933992,1.02155393 -0.396947,0.30938491 -0.758869,0.30938491 -0.239335,0 -0.391109,-0.14009884 -0.151774,-0.14593627 -0.151774,-0.36192196 0,-0.2159857 0.145936,-0.71800654 l 0.758869,-2.6151781 q 0.186799,-0.6421196 0.186799,-0.8055683 0,-0.1284239 -0.0934,-0.2101482 -0.08756,-0.081724 -0.245173,-0.081724 -0.128424,0 -0.531208,0.064212 l 0,-0.2276606 2.013921,-0.3268972 z m -3.058828,0 -0.356085,1.7920975 -0.215986,0 q -0.02919,-0.7822185 -0.332734,-1.138303 -0.303548,-0.3560845 -0.753032,-0.3560845 -0.361922,0 -0.577907,0.1984733 -0.210149,0.1984734 -0.210149,0.478671 0,0.1926359 0.08173,0.3677594 0.08756,0.1751236 0.373597,0.4903459 0.758868,0.8289181 0.980691,1.2492146 0.221824,0.4202965 0.221824,0.7938934 0,0.60709489 -0.507859,1.07992843 -0.50202,0.4669961 -1.272564,0.4669961 -0.420296,0 -0.969017,-0.19847334 -0.192636,-0.07004942 -0.29771,-0.07004942 -0.262685,0 -0.396947,0.26852276 l -0.215985,0 0.356084,-1.89133423 0.215986,0 q 0.03503,0.88729262 0.367759,1.25505205 0.332735,0.36775942 0.910643,0.36775942 0.443646,0 0.700494,-0.24517295 0.262685,-0.2510104 0.262685,-0.61293237 0,-0.23349805 -0.0934,-0.43197135 -0.163449,-0.3502471 -0.688819,-0.9690169 -0.519533,-0.6187699 -0.671307,-0.9281548 -0.145936,-0.3093849 -0.145936,-0.6187698 0,-0.5662328 0.408621,-0.957342 0.414459,-0.3911092 1.062416,-0.3911092 0.186799,0 0.338572,0.029187 0.08172,0.017512 0.379435,0.1342614 0.303547,0.1109116 0.402784,0.1109116 0.25101,0 0.420296,-0.2743602 l 0.221824,0 z m -4.786711,1.8271222 q 0,0.8756177 -0.466996,1.733723 -0.461159,0.85810532 -1.290077,1.36012613 -0.828918,0.5020208 -1.611136,0.5020208 -0.799731,0 -1.307589,-0.50785826 -0.502021,-0.5136957 -0.502021,-1.32510137 0,-0.8581054 0.490346,-1.7220482 0.496183,-0.8639427 1.319264,-1.3659635 0.828918,-0.5020208 1.599461,-0.5020208 0.770544,0 1.266727,0.5078582 0.502021,0.5078583 0.502021,1.319264 z m -0.969017,-0.4027841 q 0,-0.542883 -0.268523,-0.8289181 -0.262685,-0.2918726 -0.682981,-0.2918726 -0.858106,0 -1.58195,1.2317022 -0.718006,1.2258648 -0.718006,2.4400546 0,0.5545579 0.280198,0.85810536 0.280197,0.29771001 0.706331,0.29771001 0.823081,0 1.541087,-1.22002727 0.723844,-1.2258648 0.723844,-2.4867542 z m -7.892233,-1.4243381 -0.402785,1.3426137 q 0.636283,-0.7471937 1.132466,-1.0449037 0.502021,-0.29771 1.021554,-0.29771 0.519533,0 0.887293,0.414459 0.367759,0.4086216 0.367759,1.0682536 0,1.2842392 -1.044904,2.6151781 -1.044904,1.32510143 -2.434217,1.32510143 -0.291872,0 -0.519533,-0.06421196 -0.221823,-0.06421197 -0.502021,-0.2276606 L 16.648411,1.3542887 q -0.128424,0.4436463 -0.128424,0.5779076 0,0.128424 0.06421,0.2159857 0.07005,0.093399 0.221823,0.1400989 0.151774,0.052537 0.601258,0.052537 l -0.05254,0.2159857 -2.74944,0 0.05838,-0.2159857 q 0.542883,-0.02335 0.735519,-0.1867984 0.186798,-0.1634486 0.396946,-0.9048049 l 1.476875,-5.1136073 q 0.134262,-0.4845084 0.134262,-0.6012575 0,-0.1576112 -0.0934,-0.2451729 -0.08756,-0.087562 -0.274361,-0.087562 -0.169286,0 -0.472833,0.040862 l 0,-0.2276606 2.002246,-0.29771 z m -1.360127,4.66996092 q 0.361922,0.43197139 0.974855,0.43197139 0.303547,0 0.61877,-0.16928608 0.315222,-0.16928609 0.612932,-0.50202081 0.303548,-0.33273472 0.542883,-0.76470612 0.239336,-0.4378088 0.426134,-1.0273914 0.192636,-0.5895826 0.192636,-1.1674902 0,-0.4669961 -0.215986,-0.7121691 -0.210148,-0.2510104 -0.496183,-0.2510104 -0.630445,0 -1.249215,0.723844 -0.612932,0.7238439 -0.898967,1.6928608 l -0.507859,1.74539792 z m -4.617424,-4.66996092 -0.402784,1.3426137 q 0.636282,-0.7471937 1.132466,-1.0449037 0.50202,-0.29771 1.021553,-0.29771 0.519534,0 0.887293,0.414459 0.367759,0.4086216 0.367759,1.0682536 0,1.2842392 -1.044903,2.6151781 -1.044904,1.32510143 -2.434217,1.32510143 -0.291873,0 -0.519534,-0.06421196 -0.221823,-0.06421197 -0.50202,-0.2276606 L 10.670861,1.3542887 q -0.128424,0.4436463 -0.128424,0.5779076 0,0.128424 0.06421,0.2159857 0.07005,0.093399 0.221823,0.1400989 0.151774,0.052537 0.601257,0.052537 l -0.05254,0.2159857 -2.7494393,0 0.058375,-0.2159857 Q 9.2290102,2.3174681 9.4216461,2.1540195 9.6084445,1.9905709 9.8185928,1.2492146 l 1.4768752,-5.1136073 q 0.134261,-0.4845084 0.134261,-0.6012575 0,-0.1576112 -0.0934,-0.2451729 -0.08756,-0.087562 -0.27436,-0.087562 -0.169286,0 -0.472834,0.040862 l 0,-0.2276606 2.002246,-0.29771 z m -1.360126,4.66996092 q 0.361922,0.43197139 0.974854,0.43197139 0.303548,0 0.61877,-0.16928608 0.315223,-0.16928609 0.612933,-0.50202081 0.303547,-0.33273472 0.542882,-0.76470612 0.239336,-0.4378088 0.426134,-1.0273914 0.192636,-0.5895826 0.192636,-1.1674902 0,-0.4669961 -0.215985,-0.7121691 -0.210149,-0.2510104 -0.496184,-0.2510104 -0.630444,0 -1.249214,0.723844 -0.612933,0.7238439 -0.898968,1.6928608 l -0.507858,1.74539792 z M 9.4975332,-3.4557711 q 0,0.8756177 -0.4669961,1.733723 -0.4611586,0.85810532 -1.2900767,1.36012613 -0.8289181,0.5020208 -1.6111365,0.5020208 -0.7997308,0 -1.3075891,-0.50785826 -0.5020208,-0.5136957 -0.5020208,-1.32510137 0,-0.8581054 0.4903459,-1.7220482 0.4961833,-0.8639427 1.319264,-1.3659635 0.828918,-0.5020208 1.5994616,-0.5020208 0.7705436,0 1.2667269,0.5078582 0.5020208,0.5078583 0.5020208,1.319264 z M 8.5285163,-3.8585552 q 0,-0.542883 -0.2685227,-0.8289181 -0.2626853,-0.2918726 -0.6829818,-0.2918726 -0.8581054,0 -1.5819493,1.2317022 -0.7180065,1.2258648 -0.7180065,2.4400546 0,0.5545579 0.2801977,0.85810536 0.2801976,0.29771001 0.7063315,0.29771001 0.8230807,0 1.5410872,-1.22002727 0.7238439,-1.2258648 0.7238439,-2.4867542 z M 2.2474187,2.4634044 2.0489454,2.5568036 Q 1.3542887,1.2317022 1.0507412,0.21598569 0.81724317,-0.57790767 0.81724317,-1.3834759 q 0,-1.8796593 0.86978023,-3.3682094 1.0682536,-1.8212848 3.4616086,-3.5491703 l 0.1400988,0.2043108 q -1.0799285,0.7997308 -1.7629103,1.7920975 -0.8522678,1.2375397 -1.3951508,2.988775 -0.542883,1.7512354 -0.542883,3.18724837 0,1.09744083 0.659632,2.59182833 z" />
</g>


</g>
  <g
     id="g1471"
     style="font-style:oblique;font-size:11.95510006px;font-family:'Times New Roman';fill:#0000ff;stroke:#000000;stroke-opacity:1"
     transform="matrix(5.5488447,0,0,5.5488447,-541.16994,-393.13532)">
	<g
   transform="translate(113.715,131.027)"
   style="fill:#0000ff;fill-opacity:1;stroke:none;stroke-opacity:1"
   id="text54">
  <path
     id="path4451"
     style="fill:#0000ff;fill-opacity:1;stroke:none;stroke-opacity:1"
     d="m 59.460279,-8.189944 0.198473,-0.1109116 q 0.694657,1.319264 0.992367,2.3349805 0.239335,0.7938933 0.239335,1.5994616 0,1.8854967 -0.86978,3.36820934 -1.074091,1.82712223 -3.461608,3.55500776 l -0.140099,-0.180961 q 1.079928,-0.8055682 1.76291,-1.79209748 0.852268,-1.23753965 1.395151,-2.98877502 0.542883,-1.7570728 0.542883,-3.1930858 0,-1.0974408 -0.659632,-2.5918283 z m -5.61563,5.9892249 q -0.04086,0.2918726 -0.04086,0.4845084 0,0.5195332 0.367759,0.88729263 0.36776,0.36192197 0.89313,0.36192197 0.420297,0 0.805569,-0.16928608 0.391109,-0.17512354 1.155815,-0.76470612 l 0.122586,0.1692861 q -1.383475,1.37180103 -2.638527,1.37180103 -0.852268,0 -1.28424,-0.53704551 -0.431971,-0.53704551 -0.431971,-1.18500262 0,-0.8697802 0.537045,-1.7804226 0.537046,-0.9106424 1.348452,-1.4126632 0.811405,-0.5078582 1.669511,-0.5078582 0.618769,0 0.916479,0.2510104 0.29771,0.2510104 0.29771,0.59542 0,0.4845084 -0.385271,0.9281547 -0.507859,0.5779077 -1.494388,0.9339922 -0.653794,0.2393355 -1.838797,0.3735969 z m 0.04086,-0.2860351 q 0.863943,-0.099237 1.406826,-0.3385722 0.718006,-0.3210598 1.074091,-0.7647061 0.361922,-0.4494837 0.361922,-0.8522679 0,-0.2451729 -0.157611,-0.3969466 -0.151774,-0.1517738 -0.437809,-0.1517738 -0.59542,0 -1.266727,0.6362822 -0.665469,0.6304447 -0.980692,1.8679844 z m -1.774582,-2.7961391 -0.356085,1.7920975 -0.215985,0 q -0.02919,-0.7822185 -0.332735,-1.138303 -0.303547,-0.3560845 -0.753031,-0.3560845 -0.361922,0 -0.577908,0.1984733 -0.210148,0.1984734 -0.210148,0.478671 0,0.1926359 0.08172,0.3677594 0.08756,0.1751236 0.373597,0.4903459 0.758869,0.8289181 0.980692,1.2492146 0.221823,0.4202965 0.221823,0.7938934 0,0.60709489 -0.507858,1.07992843 -0.502021,0.4669961 -1.272565,0.4669961 -0.420296,0 -0.969016,-0.19847334 -0.192636,-0.07004942 -0.29771,-0.07004942 -0.262686,0 -0.396947,0.26852276 l -0.215986,0 0.356085,-1.89133423 0.215985,0 q 0.03502,0.88729262 0.36776,1.25505205 0.332735,0.36775942 0.910642,0.36775942 0.443646,0 0.700494,-0.24517295 0.262686,-0.2510104 0.262686,-0.61293237 0,-0.23349805 -0.0934,-0.43197135 -0.163448,-0.3502471 -0.688819,-0.9690169 -0.519533,-0.6187699 -0.671307,-0.9281548 -0.145936,-0.3093849 -0.145936,-0.6187698 0,-0.5662328 0.408622,-0.957342 0.414459,-0.3911092 1.062416,-0.3911092 0.186798,0 0.338572,0.029187 0.08172,0.017512 0.379434,0.1342614 0.303548,0.1109116 0.402784,0.1109116 0.251011,0 0.420297,-0.2743602 l 0.221823,0 z m -4.687474,0.1400988 -1.015716,3.4791209 q -0.227661,0.77638102 -0.227661,0.98069181 0,0.10507412 0.03502,0.15761118 0.04086,0.0466996 0.105074,0.0466996 0.09924,0 0.215986,-0.0875618 0.122586,-0.0933992 0.607095,-0.72384389 l 0.175123,0.1342614 q -0.461159,0.72968132 -0.945667,1.07409094 -0.32106,0.22182315 -0.61877,0.22182315 -0.22766,0 -0.356084,-0.12842393 -0.128424,-0.12842392 -0.128424,-0.33273472 0,-0.19847334 0.07589,-0.5253706 0.0934,-0.43197134 0.531208,-1.87965924 -0.992367,1.6286489 -1.663674,2.24741866 -0.665469,0.61876983 -1.23754,0.61876983 -0.268522,0 -0.455321,-0.18679844 -0.186798,-0.18679844 -0.186798,-0.47283355 0,-0.43780884 0.256848,-1.3426137 L 43.0979,-3.6659194 q 0.186798,-0.647957 0.186798,-0.8055682 0,-0.070049 -0.05254,-0.116749 -0.0467,-0.052537 -0.105074,-0.052537 -0.122586,0 -0.245173,0.087562 -0.122586,0.087562 -0.554558,0.647957 l -0.180961,-0.1284239 q 0.437809,-0.6771443 0.928155,-0.9982041 0.373597,-0.2510104 0.688819,-0.2510104 0.215986,0 0.350247,0.1400988 0.140099,0.1342614 0.140099,0.3502471 0,0.3152223 -0.233498,1.126628 l -0.54872,1.8854968 q -0.227661,0.7705435 -0.227661,0.97485429 0,0.11091158 0.07005,0.18096099 0.07589,0.064212 0.198473,0.064212 0.192636,0 0.502021,-0.19263588 0.309385,-0.19263589 0.82308,-0.8522679 0.519533,-0.6654694 0.852268,-1.2433771 0.338572,-0.5837451 0.718007,-1.850472 l 0.128424,-0.4436463 0.887292,0 z m -8.966325,-0.1400988 -0.776381,2.6560403 q 1.091603,-1.6286489 1.669511,-2.1423446 0.583745,-0.5136957 1.12079,-0.5136957 0.291873,0 0.478671,0.1926359 0.192636,0.1926358 0.192636,0.5020208 0,0.350247 -0.169286,0.9339921 l -0.712169,2.457567 q -0.122586,0.42613394 -0.122586,0.51953316 0,0.0817243 0.0467,0.14009883 0.0467,0.0525371 0.09924,0.0525371 0.07005,0 0.169286,-0.0758869 0.309385,-0.24517295 0.677144,-0.74719379 l 0.180961,0.1109116 q -0.542883,0.77638102 -1.027391,1.10911574 -0.338572,0.2276606 -0.607095,0.2276606 -0.215986,0 -0.34441,-0.13426138 -0.128424,-0.12842393 -0.128424,-0.35024707 0,-0.28019766 0.198474,-0.96317949 l 0.677144,-2.3466554 q 0.128424,-0.4378088 0.128424,-0.6829817 0,-0.1167491 -0.07589,-0.1867985 -0.07589,-0.075887 -0.186798,-0.075887 -0.163449,0 -0.39111,0.1400988 -0.431971,0.2626853 -0.898967,0.8697802 -0.466996,0.6012575 -0.986529,1.5410871 -0.27436,0.4961834 -0.455321,1.08576596 L 36.921878,0 36.04626,0 37.108676,-3.6542445 q 0.186799,-0.6596319 0.186799,-0.7938933 0,-0.1284239 -0.105074,-0.2218232 -0.09924,-0.099237 -0.251011,-0.099237 -0.07005,0 -0.245173,0.02335 l -0.221823,0.035025 -0.03502,-0.2101483 2.019758,-0.3619219 z m -6.514596,3.0821742 q -0.04086,0.2918726 -0.04086,0.4845084 0,0.5195332 0.36776,0.88729263 0.367759,0.36192197 0.89313,0.36192197 0.420296,0 0.805568,-0.16928608 0.391109,-0.17512354 1.155815,-0.76470612 l 0.122587,0.1692861 q -1.383476,1.37180103 -2.638528,1.37180103 -0.852268,0 -1.28424,-0.53704551 -0.431971,-0.53704551 -0.431971,-1.18500262 0,-0.8697802 0.537046,-1.7804226 0.537045,-0.9106424 1.348451,-1.4126632 0.811406,-0.5078582 1.669511,-0.5078582 0.61877,0 0.91648,0.2510104 0.29771,0.2510104 0.29771,0.59542 0,0.4845084 -0.385272,0.9281547 -0.507858,0.5779077 -1.494388,0.9339922 -0.653794,0.2393355 -1.838797,0.3735969 z m 0.04086,-0.2860351 q 0.863943,-0.099237 1.406826,-0.3385722 0.718007,-0.3210598 1.074091,-0.7647061 0.361922,-0.4494837 0.361922,-0.8522679 0,-0.2451729 -0.157611,-0.3969466 -0.151774,-0.1517738 -0.437809,-0.1517738 -0.59542,0 -1.266727,0.6362822 -0.665469,0.6304447 -0.980692,1.8679844 z m -1.675346,-4.243827 -0.455321,1.5877867 0.91648,0 -0.09924,0.3677594 -0.910642,0 -1.004042,3.4440962 q -0.163448,0.55455789 -0.163448,0.71800652 0,0.0992367 0.0467,0.15177374 0.0467,0.0525371 0.110912,0.0525371 0.145936,0 0.385272,-0.2043108 0.140098,-0.11674902 0.624607,-0.71800656 l 0.192636,0.1459363 q -0.537046,0.78221851 -1.015717,1.10327832 -0.326897,0.22182315 -0.659632,0.22182315 -0.256848,0 -0.420296,-0.15761118 -0.163449,-0.16344864 -0.163449,-0.41445904 0,-0.31522236 0.186799,-0.96317945 l 0.974854,-3.3798843 -0.881455,0 0.05837,-0.2276606 q 0.64212,-0.1751235 1.068254,-0.5195331 0.426134,-0.3502471 0.951504,-1.2083524 l 0.256848,0 z m -3.555008,3.2748101 q 0,0.8756177 -0.466996,1.733723 -0.461159,0.85810532 -1.290077,1.36012613 -0.828918,0.5020208 -1.611136,0.5020208 -0.799731,0 -1.307589,-0.50785826 -0.502021,-0.5136957 -0.502021,-1.32510137 0,-0.8581054 0.490346,-1.7220482 0.496183,-0.8639427 1.319264,-1.3659635 0.828918,-0.5020208 1.599461,-0.5020208 0.770544,0 1.266727,0.5078582 0.502021,0.5078583 0.502021,1.319264 z m -0.969017,-0.4027841 q 0,-0.542883 -0.268523,-0.8289181 -0.262685,-0.2918726 -0.682981,-0.2918726 -0.858106,0 -1.58195,1.2317022 -0.718006,1.2258648 -0.718006,2.4400546 0,0.5545579 0.280197,0.85810536 0.280198,0.29771001 0.706332,0.29771001 0.823081,0 1.541087,-1.22002727 0.723844,-1.2258648 0.723844,-2.4867542 z m -7.892233,-1.4243381 -0.402785,1.3426137 q 0.636283,-0.7471937 1.132466,-1.0449037 0.502021,-0.29771 1.021554,-0.29771 0.519533,0 0.887293,0.414459 0.367759,0.4086216 0.367759,1.0682536 0,1.2842392 -1.044904,2.6151781 -1.044904,1.32510143 -2.434217,1.32510143 -0.291872,0 -0.519533,-0.06421196 Q 16.677598,0.0116749 16.3974,-0.15177373 L 15.971266,1.3542887 q -0.128424,0.4436463 -0.128424,0.5779076 0,0.128424 0.06421,0.2159857 0.07005,0.093399 0.221823,0.1400989 0.151774,0.052537 0.601258,0.052537 l -0.05254,0.2159857 -2.74944,0 0.05837,-0.2159857 q 0.542883,-0.02335 0.735519,-0.1867984 0.186798,-0.1634486 0.396946,-0.9048049 l 1.476875,-5.1136073 q 0.134262,-0.4845084 0.134262,-0.6012575 0,-0.1576112 -0.0934,-0.2451729 -0.08756,-0.087562 -0.274361,-0.087562 -0.169286,0 -0.472833,0.040862 l 0,-0.2276606 2.002246,-0.29771 z m -1.360127,4.66996092 q 0.361922,0.43197139 0.974855,0.43197139 0.303547,0 0.61877,-0.16928608 0.315222,-0.16928609 0.612932,-0.50202081 0.303547,-0.33273472 0.542883,-0.76470612 0.239335,-0.4378088 0.426134,-1.0273914 0.192636,-0.5895826 0.192636,-1.1674902 0,-0.4669961 -0.215986,-0.7121691 -0.210148,-0.2510104 -0.496183,-0.2510104 -0.630445,0 -1.249215,0.723844 -0.612932,0.7238439 -0.898967,1.6928608 l -0.507859,1.74539792 z M 11.855863,-5.2828933 q 0.198474,0.3385721 0.27436,0.6362821 0.07589,0.2918726 0.151774,1.1558154 l 0.256848,2.87202597 q 0.350247,-0.42029647 1.015717,-1.33093887 0.321059,-0.4436463 0.793893,-1.2083524 0.286035,-0.4669961 0.350247,-0.6537945 0.03502,-0.093399 0.03502,-0.1926359 0,-0.064212 -0.04086,-0.1050741 -0.04086,-0.040862 -0.215986,-0.093399 -0.169286,-0.058375 -0.286035,-0.2043108 -0.110912,-0.1517737 -0.110912,-0.3444096 0,-0.2393355 0.140099,-0.3852718 0.140099,-0.1459362 0.350247,-0.1459362 0.256848,0 0.437809,0.2159857 0.180961,0.2101482 0.180961,0.5837451 0,0.4611586 -0.315222,1.0565786 -0.315223,0.5895826 -1.21419,1.8154474 -0.898968,1.22586472 -2.17737,2.6735526 -0.881455,0.9982042 -1.307589,1.255052 -0.4261336,0.2626853 -0.7296811,0.2626853 -0.180961,0 -0.3152224,-0.1400988 -0.1400988,-0.1342614 -0.1400988,-0.3152224 0,-0.2276606 0.1926359,-0.414459 0.1867984,-0.1867984 0.4086216,-0.1867984 0.116749,0 0.1926359,0.052537 0.0467,0.029187 0.1050741,0.1634487 0.052537,0.1400988 0.099237,0.1867984 0.029187,0.029187 0.070049,0.029187 0.03502,0 0.122587,-0.058375 0.32106,-0.1984733 0.747194,-0.6304447 0.560395,-0.57207021 0.828918,-0.93399218 L 11.429729,-3.3682093 q -0.08172,-0.9164799 -0.245173,-1.1149532 -0.163448,-0.1984734 -0.54872,-0.1984734 -0.122587,0 -0.437809,0.035025 L 10.145487,-4.8625966 11.85586,-5.282893 Z M 7.4777751,-8.3008556 5.8374513,-2.6326905 q 1.0624161,-1.5994616 1.6578362,-2.1248322 0.59542,-0.5253706 1.1383029,-0.5253706 0.2801977,0 0.4669961,0.1926359 0.1867985,0.1926358 0.1867985,0.5136957 0,0.3852717 -0.1634487,0.9339922 l -0.712169,2.445892 q -0.1342614,0.4436463 -0.1342614,0.4903459 0,0.0817243 0.0467,0.13426138 0.052537,0.0525371 0.116749,0.0525371 0.075887,0 0.1751236,-0.0758869 0.3327347,-0.25684786 0.659632,-0.71216908 l 0.180961,0.1109116 Q 9.2581977,-0.88729258 8.9021132,-0.51369571 8.5518661,-0.14593628 8.2950183,0 8.0440079,0.14009883 7.8455345,0.14009883 7.6295488,0.14009883 7.48945,0 7.3551886,-0.13426138 7.3551886,-0.35024707 q 0,-0.25684785 0.2043108,-0.95734203 l 0.6713069,-2.3349804 q 0.1284239,-0.4378089 0.1284239,-0.6888193 0,-0.116749 -0.075887,-0.1867984 -0.070049,-0.070049 -0.1867985,-0.070049 -0.1692861,0 -0.3852718,0.1284239 -0.3969466,0.2451729 -0.9164798,0.9106424 -0.1400988,0.180961 -0.9339922,1.4593628 -0.2451729,0.4086216 -0.4027841,0.89313 L 5.0844201,0 4.2088024,0 6.1293239,-6.6780442 6.3336347,-7.4018881 q 0,-0.1517738 -0.128424,-0.2685228 -0.1225864,-0.116749 -0.3035474,-0.116749 -0.1050741,0 -0.3210598,0.035025 l -0.1225865,0.017512 0,-0.2276606 2.0197581,-0.3385722 z M 2.2474187,2.4634044 2.0489454,2.5568036 Q 1.3542887,1.2317022 1.0507412,0.21598569 0.81724317,-0.57790767 0.81724317,-1.3834759 q 0,-1.8796593 0.86978023,-3.3682094 1.0682536,-1.8212848 3.4616086,-3.5491703 l 0.1400988,0.2043108 q -1.0799285,0.7997308 -1.7629103,1.7920975 -0.8522678,1.2375397 -1.3951508,2.988775 -0.542883,1.7512354 -0.542883,3.18724837 0,1.09744083 0.659632,2.59182833 z" />
</g>


</g>
</svg>
